<?xml version="1.0" encoding="utf-8"?>
<!-- Generator: Adobe Illustrator 27.5.0, SVG Export Plug-In . SVG Version: 6.00 Build 0)  -->
<svg version="1.1" xmlns="http://www.w3.org/2000/svg" xmlns:xlink="http://www.w3.org/1999/xlink" x="0px" y="0px"
	 viewBox="0 0 500 500" style="enable-background:new 0 0 500 500;" xml:space="preserve">
<g id="Background_Simple">
	<g>
		<path style="fill:#C6FF00;" d="M126.048,399.254c0,0,44.498,26.633,98.505,4.616c54.006-22.017,73.971-69.781,103.413-104.792
			c15.418-18.334,39.406-27.628,58.181-42.696c60.032-48.181,44.671-135.684-6-162.485c-43.866-23.201-96.403-18.988-163.039,11.833
			c-66.636,30.822-114.491,50.415-152.533,117.522C26.534,290.36,70.951,362.37,126.048,399.254z"/>
		<path style="opacity:0.7;fill:#FFFFFF;" d="M126.048,399.254c0,0,44.498,26.633,98.505,4.616
			c54.006-22.017,73.971-69.781,103.413-104.792c15.418-18.334,39.406-27.628,58.181-42.696c60.032-48.181,44.671-135.684-6-162.485
			c-43.866-23.201-96.403-18.988-163.039,11.833c-66.636,30.822-114.491,50.415-152.533,117.522
			C26.534,290.36,70.951,362.37,126.048,399.254z"/>
	</g>
</g>
<g id="Plants">
	<g>
		<path style="fill:#263238;" d="M427.081,325.548c-3.215-0.583-7.386,3.579-8.762,6.152c-0.096,0.18-1.069,2.628-1.406,3.559
			c0.001-0.031,0.005-0.063,0.006-0.094c0.136-3.123-0.12-6.12-0.5-8.951c-0.376-2.825-0.97-5.453-1.579-7.857
			c-0.603-2.407-1.304-4.571-1.939-6.481c-0.351-1.028-0.693-1.971-1.019-2.839c0.041,0.016,0.063,0.024,0.063,0.025
			c0.056,0.021,0.284-3.941,0.27-4.193c-0.165-2.913-2.198-8.444-5.359-9.268c-2.278-0.594-4.364,1.074-4.71,3.306
			c-0.354,2.279,1.143,4.695,2.66,6.26c1.554,1.604,5.831,3.375,6.896,3.8c0.32,0.907,0.655,1.894,0.999,2.976
			c0.592,1.919,1.243,4.091,1.792,6.5c0.156,0.679,0.309,1.38,0.458,2.093c-0.474-1.089-1.177-2.641-1.26-2.781
			c-1.489-2.509-5.841-6.482-9.027-5.756c-2.295,0.523-3.378,2.964-2.657,5.104c0.737,2.186,3.178,3.64,5.245,4.33
			c2.151,0.718,6.867,0.296,7.915,0.19c0.288,1.49,0.546,3.04,0.725,4.659c0.315,2.792,0.504,5.784,0.303,8.847
			c-0.012,0.18-0.034,0.362-0.048,0.542c-0.135-0.56-1.149-3.705-1.244-3.915c-1.205-2.657-5.094-7.084-8.341-6.712
			c-2.339,0.268-3.683,2.575-3.201,4.782c0.492,2.254,2.759,3.966,4.738,4.88c2.27,1.048,7.785,1.06,8.04,1.06
			c-0.225,2.865-0.687,5.791-1.31,8.736c-0.449,2.141-0.985,4.289-1.551,6.44c-0.195-0.728-1.136-3.643-1.227-3.844
			c-1.205-2.657-5.094-7.084-8.341-6.712c-2.339,0.268-3.683,2.575-3.201,4.782c0.492,2.253,2.759,3.967,4.738,4.88
			c2.17,1.001,7.316,1.057,7.988,1.059c-0.257,0.974-0.518,1.949-0.783,2.924c-0.864,3.183-1.744,6.37-2.516,9.541
			c-0.264,1.085-0.504,2.167-0.731,3.248c-0.339-1.117-0.976-3.076-1.05-3.24c-1.205-2.657-5.094-7.084-8.341-6.712
			c-2.267,0.259-3.584,2.435-3.225,4.578c-2.736,0.863-4.752,5.454-5.064,7.977c-0.011,0.089-0.022,0.695-0.029,1.397
			c-0.192-1.027-0.373-2.062-0.532-3.11c-0.442-2.904-0.801-5.876-1.175-8.853c-0.077-0.62-0.156-1.241-0.237-1.861
			c1.059-0.345,4.945-1.671,6.429-3.012c1.468-1.327,2.971-3.426,2.787-5.513c-0.179-2.044-1.97-3.681-4.07-3.28
			c-2.915,0.556-5.09,5.447-5.416,8.078c-0.012,0.093-0.024,0.757-0.03,1.504c-0.225-1.609-0.471-3.211-0.764-4.792
			c-0.509-2.774-1.153-5.485-1.99-8.054c0.616-0.195,5.026-1.628,6.629-3.077c1.469-1.327,2.971-3.426,2.788-5.513
			c-0.179-2.044-1.97-3.681-4.07-3.28c-2.915,0.556-5.09,5.447-5.416,8.078c-0.023,0.184-0.048,2.576-0.029,3.476
			c-0.009-0.027-0.016-0.055-0.025-0.082c-0.905-2.691-2.102-5.148-3.349-7.423c-1.242-2.271-2.604-4.305-3.905-6.143
			c-1.298-1.843-2.599-3.448-3.761-4.859c-0.633-0.756-1.231-1.444-1.792-2.073c0.04,0,0.061,0,0.061,0
			c0.054,0-1.047-3.433-1.141-3.642c-1.092-2.415-4.622-6.439-7.571-6.104c-2.125,0.241-3.348,2.336-2.912,4.341
			c0.445,2.047,2.503,3.605,4.3,4.436c1.841,0.852,6.045,0.955,7.086,0.967c0.568,0.664,1.174,1.391,1.819,2.196
			c1.129,1.433,2.391,3.061,3.643,4.924c0.354,0.524,0.713,1.069,1.072,1.625c-0.758-0.768-1.861-1.854-1.977-1.946
			c-2.082-1.64-7.069-3.585-9.532-1.928c-1.774,1.193-1.895,3.616-0.584,5.194c1.339,1.612,3.883,2.046,5.86,1.956
			c2.058-0.094,5.917-1.993,6.77-2.425c0.732,1.169,1.456,2.398,2.137,3.711c1.179,2.264,2.317,4.738,3.148,7.399
			c0.049,0.156,0.089,0.318,0.136,0.475c-0.298-0.431-2.185-2.765-2.334-2.911c-1.889-1.859-6.633-4.339-9.262-2.964
			c-1.895,0.991-2.28,3.386-1.151,5.099c1.153,1.749,3.634,2.46,5.61,2.588c2.266,0.146,6.945-1.646,7.161-1.729
			c0.746,2.501,1.31,5.133,1.745,7.832c0.319,1.961,0.567,3.957,0.79,5.965c-0.403-0.554-2.153-2.717-2.296-2.857
			c-1.889-1.859-6.633-4.339-9.262-2.964c-1.895,0.991-2.28,3.386-1.151,5.099c1.153,1.749,3.634,2.46,5.61,2.587
			c2.166,0.139,6.546-1.495,7.117-1.713c0.101,0.91,0.198,1.821,0.292,2.734c0.308,2.98,0.604,5.968,0.986,8.909
			c0.13,1.006,0.281,2.002,0.442,2.991c-0.652-0.836-1.832-2.288-1.949-2.403c-1.889-1.859-6.632-4.339-9.262-2.963
			c-1.895,0.991-2.28,3.386-1.151,5.099c1.153,1.749,3.634,2.46,5.61,2.588c1.973,0.127,5.771-1.214,6.868-1.62
			c0.285,1.664,0.612,3.306,1.003,4.91c0.184,0.688,0.327,1.402,0.541,2.052c0.201,0.66,0.401,1.314,0.598,1.961
			c0.456,1.324,0.875,2.556,1.331,3.778c0.214,0.586,0.429,1.163,0.644,1.731c-0.532-0.94-1.358-2.348-1.449-2.47
			c-1.586-2.123-5.899-5.294-8.707-4.332c-2.023,0.693-2.767,3.002-1.91,4.866c0.875,1.904,3.22,2.983,5.153,3.407
			c2.079,0.457,6.512-0.448,7.246-0.604c0.566,1.468,1.131,2.875,1.684,4.197c0.604,1.453,1.187,2.797,1.745,4.05h-4.822v3.175
			h1.155l1.876,22.225h15.009l1.876-22.225h0.866v-3.175h-4.26c-0.118-1.588-0.227-3.307-0.315-5.154
			c-0.071-1.422-0.126-2.921-0.164-4.471c0.801-0.074,5.78-0.576,7.821-1.742c1.892-1.081,4.003-2.983,4.298-5.271
			c0.289-2.24-1.25-4.422-3.603-4.487c-3.266-0.089-6.759,4.657-7.729,7.409c-0.063,0.178-0.572,2.383-0.801,3.484
			c-0.02-0.94-0.034-1.892-0.038-2.871c-0.017-1.401,0.012-2.882,0.031-4.318c0.037-0.744,0.075-1.495,0.113-2.254
			c0.022-0.767,0.137-1.494,0.201-2.254c0.12-1.113,0.279-2.247,0.455-3.387c1.448,0.07,5.649,0.196,7.609-0.557
			c2.034-0.782,4.408-2.343,5.047-4.559c0.625-2.17-0.565-4.561-2.882-4.981c-3.215-0.583-7.386,3.579-8.762,6.152
			c-0.047,0.087-0.298,0.705-0.583,1.424c0.209-1.131,0.434-2.266,0.686-3.406c0.696-3.158,1.504-6.353,2.3-9.558
			c0.166-0.668,0.33-1.336,0.494-2.005c1.224,0.065,5.741,0.242,7.797-0.548c2.034-0.781,4.408-2.343,5.047-4.559
			c0.625-2.17-0.566-4.561-2.882-4.981c-3.215-0.583-7.386,3.579-8.762,6.152c-0.049,0.091-0.324,0.768-0.627,1.533
			c0.406-1.742,0.787-3.485,1.113-5.225c0.576-3.051,0.988-6.09,1.145-9.061c0.71,0.043,5.807,0.318,8.027-0.535
			c2.034-0.782,4.408-2.343,5.047-4.559C430.587,328.358,429.397,325.968,427.081,325.548z M400.23,395.12
			c-0.685-1.436-1.417-3.016-2.18-4.744c-0.525-1.182-1.061-2.434-1.6-3.736c0.53-0.263,3.292-1.66,5.039-3.061
			c2.276,0.848,5.432,1.379,6.072,1.481c0,1.732,0.023,3.401,0.067,4.978c0.047,1.823,0.119,3.509,0.201,5.082H400.23z
			 M408.133,373.024c-0.084,0.78-0.22,1.57-0.257,2.323c-0.055,0.758-0.108,1.509-0.162,2.251c-0.056,1.541-0.113,2.973-0.129,4.408
			c-0.012,0.687-0.02,1.365-0.024,2.033c-0.174-1.177-0.465-2.95-0.51-3.111c-0.788-2.809-3.962-7.774-7.228-7.898
			c-2.352-0.09-4.031,1.988-3.889,4.242c0.038,0.597,0.203,1.174,0.452,1.726c-0.43,1.424-0.637,2.869-0.607,3.919
			c0.005,0.171,0.294,2.206,0.46,3.215c-0.324-0.79-0.647-1.592-0.971-2.421c-0.472-1.182-0.932-2.447-1.385-3.67
			c-0.211-0.642-0.425-1.292-0.641-1.947c-0.232-0.657-0.372-1.311-0.566-1.976c-0.263-0.983-0.498-1.995-0.721-3.019
			c1.25-0.414,4.851-1.68,6.266-2.959c1.081-0.977,2.174-2.372,2.606-3.873c0.174,0.091,0.349,0.184,0.521,0.263
			c1.976,0.912,6.409,1.039,7.697,1.056C408.68,369.406,408.367,371.221,408.133,373.024z"/>
		<path style="fill:#263238;" d="M423.186,318.447c1.756-1.291,3.633-3.424,3.664-5.73c0.03-2.258-1.75-4.249-4.095-4.043
			c-3.255,0.286-6.179,5.403-6.826,8.247c-0.056,0.246-0.49,4.191-0.431,4.18C415.502,321.101,421.125,319.963,423.186,318.447z"/>
		<path style="fill:#263238;" d="M380.576,330.071c0.003-0.002,4.397-2.804,5.649-4.762c1.066-1.668,1.961-4.089,1.233-6.054
			c-0.713-1.924-2.872-3.03-4.792-2.089c-2.665,1.306-3.471,6.598-3.09,9.221C379.609,326.615,380.531,330.101,380.576,330.071z"/>
	</g>
</g>
<g id="Board">
	<g>
		
			<rect x="217.294" y="139.759" style="fill:#FFFFFF;stroke:#263238;stroke-linecap:round;stroke-linejoin:round;stroke-miterlimit:10;" width="208.649" height="125.773"/>
		
			<rect x="217.294" y="261.669" style="fill:#FFFFFF;stroke:#263238;stroke-linecap:round;stroke-linejoin:round;stroke-miterlimit:10;" width="208.649" height="3.863"/>
		<g>
			<g>
				<g id="XMLID_87_">
					<path id="XMLID_17_" style="fill:none;stroke:#263238;stroke-width:0.72;stroke-linecap:round;stroke-linejoin:round;" d="
						M392.292,225.021c0.068,0.118,1.623-1.099,1.693-0.978c0.16,0.277-6.428,5.752-6.267,6.03
						c0.357,0.618,12.845-8.192,13.181-7.61c0.398,0.689-15.083,10.146-14.677,10.849c0.513,0.889,17.839-11.256,18.253-10.539
						c0.429,0.744-19.241,11.595-18.791,12.374c0.485,0.84,20.18-12.762,20.661-11.929c0.509,0.882-21.484,12.43-20.952,13.352
						c0.573,0.993,21.806-13.754,22.31-12.881c0.503,0.872-22.947,15.188-22.458,16.034c0.668,1.157,24.706-15.605,25.286-14.599
						c0.618,1.071-25.783,14.354-25.228,15.315c0.562,0.973,25.189-16.017,25.827-14.911c0.544,0.943-26.385,14.921-25.735,16.047
						c0.574,0.994,26.013-16.537,26.67-15.398c0.581,1.006-26.652,17.061-26.087,18.04c0.678,1.174,27.402-17.338,28.059-16.2
						c0.637,1.103-28.172,16.595-27.44,17.862c0.648,1.123,27.835-17.835,28.599-16.511c0.636,1.102-29.013,15.904-28.425,16.922
						c0.697,1.208,28.013-17.774,28.706-16.574c0.65,1.126-29.142,15.966-28.473,17.126c0.765,1.326,28.11-17.792,28.787-16.62
						c0.586,1.016-29.148,16.081-28.507,17.189c0.715,1.238,28.183-17.792,28.841-16.652c0.721,1.249-28.197,17.571-27.465,18.839
						c0.626,1.084,27.944-17.803,28.667-16.551c0.672,1.164-28.448,16.441-27.801,17.561c0.721,1.249,27.686-17.435,28.314-16.347
						c0.592,1.025-28.271,16.063-27.68,17.086c0.727,1.258,27.328-17.217,27.951-16.137c0.65,1.125-26.655,16.77-26.008,17.89
						c0.637,1.104,25.812-16.586,26.541-15.324c0.578,1.002-27.051,14.281-26.389,15.426c0.72,1.247,25.756-16.366,26.404-15.244
						c0.661,1.145-26.909,14.279-26.318,15.302c0.617,1.068,25.661-16.353,26.327-15.2c0.576,0.998-24.258,15.794-23.676,16.803
						c0.532,0.922,23.132-14.807,23.76-13.718c0.472,0.818-22.081,13.722-21.557,14.631c0.542,0.939,20.775-13.089,21.249-12.268
						c0.519,0.899-21.361,11.549-20.869,12.4c0.452,0.784,20.218-12.99,20.788-12.002c0.473,0.818-17.143,12.066-16.754,12.74
						c0.381,0.66,14.967-9.634,15.397-8.889c0.302,0.523-11.486,8.213-11.203,8.703c0.229,0.397,8.613-5.579,8.876-5.124
						c0.118,0.204-5.405,3.817-5.27,4.052c0.086,0.149,2.573-1.713,2.671-1.542c0.044,0.077-2.084,1.198-2.039,1.275
						c0.084,0.145,1.61-1.117,1.691-0.976"/>
				</g>
				<g id="XMLID_65_">
					<path id="XMLID_83_" style="fill:#FFFFFF;" d="M399.382,246.286c0.535-0.111,1-0.317,1.394-0.619
						c0.348-0.262,0.641-0.586,0.874-0.97c0.366-0.581,0.549-1.236,0.549-1.968c0-0.708-0.16-1.311-0.48-1.808
						c-0.321-0.497-0.796-0.86-1.426-1.089c0.414-0.212,0.728-0.446,0.941-0.703c0.38-0.457,0.571-1.063,0.571-1.816
						c0-0.731-0.189-1.359-0.567-1.883c-0.627-0.853-1.693-1.291-3.197-1.314h-5.964v12.338h5.56
						C398.265,246.454,398.847,246.398,399.382,246.286z M394.54,236.259h2.684c0.591,0,1.077,0.064,1.458,0.193
						c0.442,0.184,0.663,0.563,0.663,1.138c0,0.519-0.167,0.881-0.502,1.084c-0.334,0.204-0.769,0.305-1.305,0.305h-2.999V236.259z
						 M394.54,244.311v-3.289h3.037c0.531,0.006,0.941,0.075,1.234,0.209c0.524,0.24,0.786,0.68,0.786,1.322
						c0,0.759-0.27,1.273-0.811,1.541c-0.297,0.145-0.715,0.217-1.249,0.217H394.54z"/>
					<g id="XMLID_66_">
						<path id="XMLID_68_" style="fill:#FFFFFF;" d="M404.289,245.641c0.928,0.749,1.999,1.123,3.213,1.123
							c1.472,0,2.616-0.443,3.432-1.331c0.526-0.559,0.821-1.108,0.885-1.649h-2.436c-0.142,0.268-0.306,0.477-0.491,0.627
							c-0.34,0.279-0.781,0.419-1.324,0.419c-0.513,0-0.951-0.115-1.315-0.344c-0.599-0.368-0.917-1.01-0.954-1.926h6.645
							c0.012-0.787-0.015-1.391-0.078-1.81c-0.111-0.715-0.353-1.344-0.727-1.886c-0.414-0.615-0.94-1.065-1.577-1.35
							c-0.635-0.285-1.351-0.427-2.145-0.427c-1.336,0-2.424,0.421-3.262,1.265c-0.838,0.842-1.257,2.055-1.257,3.635
							C402.897,243.675,403.361,244.893,404.289,245.641z M405.993,239.576c0.338-0.347,0.812-0.521,1.424-0.521
							c0.563,0,1.035,0.164,1.416,0.491c0.38,0.328,0.592,0.809,0.635,1.442h-4.11C405.444,240.394,405.656,239.924,405.993,239.576
							z"/>
						<rect id="XMLID_67_" x="404.58" y="234.826" style="fill:#FFFFFF;" width="5.362" height="1.245"/>
					</g>
				</g>
			</g>
			<g>
				<g id="XMLID_62_">
					<path id="XMLID_16_" style="fill:none;stroke:#263238;stroke-width:0.72;stroke-linecap:round;stroke-linejoin:round;" d="
						M388.346,149.036c0.075,0.13,1.626-1.094,1.693-0.977c0.166,0.287-6.725,6.201-6.542,6.518
						c0.318,0.551,13.687-8.721,14.041-8.107c0.337,0.583-14.713,8.212-14.382,8.785c0.368,0.637,14.759-9.377,15.129-8.735
						c0.332,0.575-16.209,9.764-15.858,10.372c0.478,0.827,17.256-10.887,17.656-10.194c0.421,0.729-19.094,12.99-18.62,13.811
						c0.514,0.891,21.628-13.856,22.22-12.829c0.464,0.803-22.874,12.983-22.328,13.928c0.594,1.028,22.754-14.519,23.353-13.482
						c0.508,0.88-23.896,14.815-23.404,15.669c0.552,0.956,24.743-15.634,25.327-14.623c0.665,1.151-25.847,14.343-25.269,15.344
						c0.578,1.001,25.185-16.125,25.872-14.937c0.64,1.109-26.349,14.808-25.806,15.749c0.642,1.113,25.888-16.323,26.484-15.291
						c0.597,1.034-27.082,14.646-26.447,15.745c0.654,1.133,26.159-16.562,26.79-15.468c0.689,1.193-27.466,14.486-26.773,15.686
						c0.698,1.21,26.322-16.602,26.93-15.548c0.581,1.006-27.298,15.528-26.665,16.624c0.686,1.188,26.891-16.951,27.508-15.882
						c0.71,1.23-28.066,15.049-27.451,16.115c0.757,1.311,27.023-17.012,27.634-15.954c0.666,1.154-27.863,16.385-27.25,17.447
						c0.714,1.236,27.56-17.575,28.28-16.328c0.617,1.069-28.048,17.313-27.361,18.502c0.772,1.338,28.121-17.813,28.804-16.63
						c0.681,1.179-28.168,17.664-27.567,18.705c0.678,1.175,28.057-17.851,28.772-16.611c0.717,1.243-29.364,15.573-28.659,16.794
						c0.769,1.332,28.103-17.704,28.743-16.595c0.593,1.027-28.57,16.549-27.984,17.564c0.68,1.178,27.812-17.56,28.462-16.433
						c0.673,1.167-28.205,16.35-27.527,17.523c0.641,1.11,27.34-17.285,27.99-16.16c0.718,1.243-28.025,15.614-27.335,16.809
						c0.677,1.173,26.837-17.157,27.557-15.91c0.666,1.154-26.107,16.445-25.436,17.607c0.59,1.023,25.28-15.901,25.846-14.922
						c0.602,1.042-24.399,15.135-23.835,16.112c0.579,1.004,23.284-14.811,23.876-13.785c0.51,0.884-23.871,13.151-23.353,14.048
						c0.54,0.935,22.754-14.428,23.313-13.46c0.519,0.898-22.01,13.313-21.517,14.167c0.59,1.021,20.662-13.261,21.239-12.262
						c0.482,0.835-19.066,12.201-18.65,12.922c0.41,0.71,17.442-11.192,17.928-10.351c0.352,0.61-17.09,9.77-16.656,10.521
						c0.452,0.784,15.764-10.086,16.19-9.347c0.309,0.536-12.571,8.704-12.235,9.285c0.278,0.481,9.986-6.37,10.248-5.917
						c0.125,0.216-5.442,4.311-5.317,4.528c0.084,0.146,1.763-1.18,1.833-1.058c0.045,0.078-1.781,0.951-1.741,1.02
						c0.081,0.14,1.608-1.121,1.691-0.976"/>
				</g>
				<path id="XMLID_61_" style="fill:#FFFFFF;" d="M395.275,174.25h4.289v-10.741h2.993l0.319-3.596h-3.312c0,0,0-1.343,0-2.048
					c0-0.848,0.17-1.183,0.99-1.183c0.66,0,2.321,0,2.321,0v-3.732c0,0-2.447,0-2.97,0c-3.192,0-4.631,1.406-4.631,4.096
					c0,2.344,0,2.867,0,2.867h-2.231v3.641h2.231V174.25z"/>
			</g>
			<g>
				<g id="XMLID_56_">
					<path id="XMLID_12_" style="fill:none;stroke:#263238;stroke-width:0.72;stroke-linecap:round;stroke-linejoin:round;" d="
						M339.334,178.493c0.07,0.121,1.614-1.114,1.693-0.978c0.129,0.223-5.43,4.371-5.299,4.597c0.289,0.5,10.177-6.512,10.452-6.035
						c0.332,0.575-12.48,8.402-12.18,8.922c0.379,0.656,15.161-9.748,15.592-9.002c0.468,0.811-17.313,11.7-16.843,12.513
						c0.536,0.928,20.037-12.719,20.536-11.856c0.552,0.956-21.514,14.131-20.984,15.05c0.575,0.995,23.423-14.777,23.966-13.837
						c0.617,1.069-24.486,13.287-23.987,14.152c0.649,1.124,23.612-15.147,24.268-14.011c0.513,0.888-24.861,13.745-24.296,14.722
						c0.652,1.13,24.257-15.569,24.935-14.396c0.579,1.002-25.272,15.92-24.737,16.848c0.631,1.092,26.178-16.448,26.756-15.447
						c0.558,0.967-26.722,17.177-26.117,18.225c0.665,1.152,27.472-17.471,28.169-16.264c0.588,1.018-28.431,16.164-27.745,17.352
						c0.78,1.351,27.876-17.558,28.51-16.46c0.657,1.138-29.024,15.707-28.295,16.969c0.71,1.229,27.921-17.824,28.658-16.546
						c0.598,1.035-29.144,15.837-28.449,17.042c0.633,1.096,28.106-17.71,28.748-16.598c0.646,1.118-28.959,16.383-28.314,17.502
						c0.745,1.291,28.177-17.801,28.841-16.652c0.674,1.167-29.362,15.731-28.678,16.914c0.761,1.318,28.135-17.875,28.841-16.652
						c0.725,1.255-27.968,17.81-27.349,18.882c0.628,1.087,27.9-17.575,28.535-16.475c0.727,1.259-28.635,15.955-27.924,17.187
						c0.658,1.14,27.582-17.551,28.286-16.331c0.595,1.03-27.716,16.445-27.008,17.673c0.693,1.201,26.734-17.143,27.474-15.862
						c0.638,1.105-27.474,15.316-26.833,16.426c0.594,1.03,26.365-16.768,27.034-15.608c0.676,1.171-26.668,15.304-26.043,16.387
						c0.615,1.065,25.53-16.234,26.177-15.114c0.507,0.879-24.228,15.687-23.7,16.601c0.559,0.969,23.112-14.861,23.769-13.723
						c0.576,0.997-23.612,13.102-23.044,14.087c0.584,1.011,22.46-14.19,22.989-13.273c0.495,0.857-21.302,13.183-20.787,14.075
						c0.484,0.839,19.826-12.725,20.38-11.766c0.453,0.786-20.569,11.018-20.084,11.857c0.495,0.857,19.582-12.325,20.024-11.561
						c0.481,0.833-19.724,10.915-19.262,11.716c0.468,0.811,18.553-11.815,19.031-10.988c0.376,0.651-18.34,10.455-17.899,11.219
						c0.403,0.698,17.02-10.969,17.514-10.112c0.372,0.644-13.586,9.602-13.236,10.208c0.304,0.526,10.944-6.998,11.238-6.488
						c0.164,0.283-6.575,5.1-6.421,5.366c0.113,0.197,2.891-1.923,3.001-1.733c0.06,0.104-2.88,1.531-2.811,1.652
						c0.103,0.178,2.602-1.742,2.706-1.562c0.048,0.084-2.096,1.209-2.052,1.286c0.076,0.133,1.615-1.108,1.691-0.976"/>
				</g>
				<path id="XMLID_50_" style="fill:#FFFFFF;" d="M339.666,198.955c1.705,1.093,3.73,1.731,5.905,1.731
					c7.152,0,11.193-6.041,10.949-11.459c0.752-0.543,1.405-1.221,1.922-1.994c-0.691,0.306-1.434,0.514-2.212,0.606
					c0.795-0.476,1.406-1.231,1.693-2.131c-0.744,0.442-1.569,0.762-2.446,0.935c-0.703-0.749-1.704-1.216-2.812-1.216
					c-2.486,0-4.313,2.32-3.752,4.73c-3.202-0.16-6.04-1.694-7.94-4.025c-1.009,1.732-0.523,3.997,1.192,5.144
					c-0.632-0.02-1.226-0.194-1.746-0.482c-0.042,1.785,1.237,3.454,3.09,3.826c-0.542,0.148-1.136,0.181-1.739,0.066
					c0.489,1.531,1.912,2.644,3.598,2.675C343.75,198.629,341.71,199.196,339.666,198.955z"/>
			</g>
			<g>
				<g>
					<path id="XMLID_11_" style="fill:none;stroke:#263238;stroke-width:0.72;stroke-linecap:round;stroke-linejoin:round;" d="
						M292.251,148.781c0.069,0.119,1.613-1.117,1.693-0.978c0.19,0.33-6.779,6.275-6.587,6.607
						c0.346,0.599,13.804-8.849,14.185-8.189c0.387,0.67-15.044,8.75-14.735,9.286c0.374,0.647,15.488-9.992,15.942-9.204
						c0.389,0.673-16.632,9.244-16.261,9.886c0.409,0.708,16.557-10.659,17.033-9.834c0.411,0.713-18.486,12.698-18.059,13.438
						c0.505,0.875,21.144-13.459,21.685-12.52c0.484,0.839-22.56,14.5-21.983,15.5c0.592,1.025,24.084-15.356,24.712-14.268
						c0.67,1.16-25.107,16.09-24.497,17.146c0.714,1.237,26.172-16.721,26.87-15.513c0.687,1.19-27.479,14.657-26.812,15.812
						c0.704,1.22,26.425-16.676,27.04-15.611c0.55,0.954-27.694,14.548-27.009,15.734c0.721,1.249,26.363-16.937,27.106-15.65
						c0.573,0.993-27.241,16.754-26.531,17.983c0.693,1.2,27.493-17.583,28.233-16.301c0.633,1.097-28.603,15.91-27.871,17.178
						c0.694,1.203,27.767-17.711,28.494-16.451c0.617,1.069-28.605,16.638-27.896,17.868c0.618,1.071,28.059-17.913,28.801-16.628
						c0.608,1.054-29.066,16.209-28.401,17.361c0.724,1.254,28.103-17.931,28.841-16.652c0.609,1.056-29.285,15.867-28.7,16.879
						c0.758,1.314,28.196-17.769,28.841-16.652c0.677,1.173-27.984,17.77-27.4,18.781c0.638,1.105,27.807-17.696,28.518-16.465
						c0.632,1.095-28.198,16.484-27.573,17.566c0.71,1.23,27.319-17.503,28.068-16.205c0.634,1.098-28.612,15.237-28.021,16.26
						c0.646,1.118,27.335-17.408,28.039-16.188c0.713,1.235-27.761,15.935-27.064,17.142c0.586,1.016,26.693-17.024,27.391-15.814
						c0.673,1.165-27.481,15.154-26.799,16.335c0.578,1.001,26.278-16.806,26.985-15.58c0.572,0.991-27.537,14.517-26.86,15.691
						c0.58,1.004,26.153-16.802,26.89-15.525c0.579,1.003-26.164,15.478-25.591,16.471c0.694,1.201,25.073-15.975,25.722-14.85
						c0.517,0.896-25.423,14.461-24.863,15.43c0.675,1.169,24.336-15.46,24.946-14.403c0.557,0.965-22.482,14.905-21.988,15.76
						c0.516,0.894,21.114-13.533,21.695-12.526c0.491,0.85-21.225,12.038-20.755,12.853c0.569,0.985,19.991-12.841,20.553-11.866
						c0.477,0.827-18.948,11.532-18.482,12.34c0.446,0.773,17.41-11.1,17.864-10.314c0.379,0.657-14.886,9.958-14.537,10.562
						c0.325,0.563,12.752-8.207,13.118-7.573c0.289,0.501-11.878,6.95-11.589,7.45c0.271,0.469,10.475-6.681,10.749-6.206
						c0.157,0.271-5.534,4.526-5.403,4.752c0.082,0.141,1.612-1.114,1.691-0.976"/>
				</g>
				<g id="XMLID_29_">
					<g id="XMLID_36_">
						<rect id="XMLID_39_" x="293.491" y="159.001" style="fill:#FFFFFF;" width="3.647" height="11.781"/>
						<path id="XMLID_37_" style="fill:#FFFFFF;" d="M295.296,157.459c1.191,0,2.157-0.974,2.157-2.174
							c0-1.2-0.965-2.174-2.157-2.174c-1.191,0-2.156,0.973-2.156,2.174C293.14,156.485,294.105,157.459,295.296,157.459z"/>
					</g>
					<path id="XMLID_31_" style="fill:#FFFFFF;" d="M302.967,164.598c0-1.656,0.762-2.643,2.222-2.643
						c1.341,0,1.985,0.947,1.985,2.643c0,1.697,0,6.184,0,6.184h3.629c0,0,0-4.303,0-7.459c0-3.156-1.789-4.681-4.286-4.681
						c-2.499,0-3.55,1.947-3.55,1.947v-1.587h-3.498v11.781h3.498C302.967,170.782,302.967,166.413,302.967,164.598z"/>
				</g>
			</g>
			<g>
				<g id="XMLID_9_">
					<path id="XMLID_10_" style="fill:none;stroke:#263238;stroke-width:0.72;stroke-linecap:round;stroke-linejoin:round;" d="
						M302.597,224.892c0.078,0.135,1.622-1.1,1.693-0.978c0.102,0.177-4.023,2.77-3.913,2.96c0.189,0.327,6.722-4.348,6.924-3.998
						c0.245,0.425-9.434,6.508-9.188,6.934c0.301,0.521,12.56-8.099,12.927-7.463c0.352,0.609-14.76,9.725-14.365,10.41
						c0.471,0.816,17.207-11.004,17.671-10.202c0.395,0.683-18.24,10.09-17.86,10.748c0.497,0.86,17.961-11.427,18.419-10.634
						c0.429,0.743-19.136,10.46-18.651,11.301c0.531,0.92,18.828-12.035,19.332-11.162c0.476,0.824-20.475,13.615-19.969,14.493
						c0.63,1.091,22.657-14.329,23.198-13.393c0.51,0.883-23.771,13.605-23.27,14.473c0.577,0.999,23.599-15.085,24.232-13.99
						c0.544,0.942-24.673,15.103-24.162,15.988c0.564,0.977,25.273-15.986,25.877-14.94c0.681,1.18-26.187,16.155-25.552,17.255
						c0.741,1.283,26.69-17.004,27.381-15.808c0.596,1.033-27.561,16.471-26.962,17.51c0.609,1.055,27.572-17.331,28.184-16.272
						c0.638,1.106-28.346,16.379-27.683,17.527c0.649,1.125,27.858-17.726,28.569-16.494c0.708,1.226-28.559,16.892-27.969,17.914
						c0.788,1.365,28.197-17.762,28.839-16.65c0.608,1.053-28.924,16.444-28.317,17.497c0.73,1.264,28.196-17.769,28.841-16.651
						c0.617,1.068-28.276,17.347-27.62,18.485c0.779,1.348,27.95-17.569,28.57-16.495c0.726,1.257-28.04,16.709-27.328,17.943
						c0.643,1.114,27.206-17.456,27.963-16.144c0.612,1.061-27.234,16.37-26.674,17.339c0.672,1.163,26.424-16.8,27.092-15.642
						c0.618,1.07-27.409,14.839-26.794,15.904c0.659,1.142,26.208-16.672,26.875-15.516c0.57,0.988-26.427,15.189-25.77,16.327
						c0.583,1.009,25.325-15.908,25.882-14.943c0.517,0.896-24.497,15.064-23.877,16.137c0.66,1.143,23.408-14.712,23.926-13.814
						c0.567,0.982-21.698,14.021-21.165,14.944c0.488,0.845,20.189-12.974,20.76-11.986c0.489,0.846-18.59,11.788-18.121,12.599
						c0.446,0.773,16.938-10.691,17.333-10.007c0.419,0.727-16.87,9.455-16.505,10.087c0.395,0.683,15.759-10.092,16.189-9.347
						c0.259,0.449-10.433,8.373-10.144,8.875c0.214,0.371,6.609-4.245,6.795-3.923c0.086,0.15-3.958,2.743-3.864,2.905
						c0.069,0.12,1.612-1.114,1.691-0.976"/>
				</g>
				<g id="XMLID_1_">
					<path id="XMLID_6_" style="fill:#FFFFFF;" d="M312.318,231.535c2.58,0,2.885,0.01,3.904,0.056
						c0.942,0.043,1.454,0.2,1.794,0.333c0.451,0.175,0.773,0.385,1.111,0.723c0.338,0.338,0.547,0.66,0.723,1.111
						c0.132,0.341,0.29,0.852,0.333,1.794c0.046,1.019,0.056,1.324,0.056,3.904c0,2.58-0.01,2.885-0.056,3.904
						c-0.043,0.942-0.2,1.454-0.333,1.794c-0.175,0.451-0.384,0.773-0.723,1.111c-0.338,0.338-0.66,0.547-1.111,0.723
						c-0.341,0.132-0.852,0.29-1.794,0.333c-1.019,0.046-1.324,0.056-3.904,0.056c-2.58,0-2.885-0.01-3.904-0.056
						c-0.942-0.043-1.453-0.2-1.794-0.333c-0.451-0.175-0.773-0.385-1.111-0.723c-0.338-0.338-0.547-0.66-0.723-1.111
						c-0.132-0.34-0.29-0.852-0.333-1.794c-0.046-1.019-0.056-1.324-0.056-3.904c0-2.58,0.01-2.885,0.056-3.904
						c0.043-0.942,0.201-1.454,0.333-1.794c0.175-0.451,0.385-0.773,0.723-1.111c0.338-0.338,0.66-0.547,1.111-0.723
						c0.341-0.132,0.852-0.29,1.794-0.333C309.433,231.545,309.738,231.535,312.318,231.535 M312.318,229.794
						c-2.624,0-2.953,0.011-3.983,0.058c-1.028,0.047-1.731,0.21-2.345,0.449c-0.636,0.247-1.174,0.577-1.711,1.114
						c-0.537,0.537-0.867,1.076-1.114,1.711c-0.239,0.615-0.402,1.317-0.449,2.345c-0.047,1.031-0.058,1.359-0.058,3.983
						c0,2.624,0.011,2.953,0.058,3.983c0.047,1.028,0.21,1.73,0.449,2.345c0.247,0.635,0.577,1.174,1.114,1.711
						c0.537,0.537,1.076,0.868,1.711,1.114c0.614,0.239,1.317,0.402,2.345,0.449c1.03,0.047,1.359,0.058,3.983,0.058
						c2.624,0,2.953-0.011,3.983-0.058c1.028-0.047,1.731-0.21,2.345-0.449c0.635-0.247,1.174-0.577,1.711-1.114
						c0.537-0.537,0.867-1.076,1.114-1.711c0.239-0.615,0.402-1.317,0.449-2.345c0.047-1.031,0.058-1.36,0.058-3.983
						c0-2.624-0.011-2.953-0.058-3.983c-0.047-1.028-0.21-1.73-0.449-2.345c-0.247-0.635-0.577-1.174-1.114-1.711
						c-0.537-0.537-1.076-0.868-1.711-1.114c-0.615-0.239-1.317-0.402-2.345-0.449C315.271,229.805,314.942,229.794,312.318,229.794
						"/>
					<path id="XMLID_3_" style="fill:#FFFFFF;" d="M312.318,234.494c-2.74,0-4.961,2.221-4.961,4.961
						c0,2.74,2.221,4.961,4.961,4.961s4.961-2.221,4.961-4.961C317.279,236.715,315.058,234.494,312.318,234.494 M312.318,242.676
						c-1.779,0-3.22-1.442-3.22-3.22c0-1.779,1.442-3.221,3.22-3.221s3.22,1.442,3.22,3.221
						C315.538,241.234,314.097,242.676,312.318,242.676"/>
					<path id="XMLID_2_" style="fill:#FFFFFF;" d="M318.634,234.298c0,0.64-0.519,1.16-1.159,1.16c-0.64,0-1.159-0.519-1.159-1.16
						s0.519-1.159,1.159-1.159C318.115,233.139,318.634,233.658,318.634,234.298"/>
				</g>
			</g>
			<g>
				
					<line style="fill:none;stroke:#263238;stroke-linecap:round;stroke-linejoin:round;stroke-miterlimit:10;" x1="371.723" y1="193.453" x2="385.876" y2="193.453"/>
				
					<line style="fill:none;stroke:#263238;stroke-linecap:round;stroke-linejoin:round;stroke-miterlimit:10;" x1="371.723" y1="196.367" x2="385.876" y2="196.367"/>
				
					<line style="fill:none;stroke:#263238;stroke-linecap:round;stroke-linejoin:round;stroke-miterlimit:10;" x1="371.723" y1="199.281" x2="385.876" y2="199.281"/>
				
					<line style="fill:none;stroke:#263238;stroke-linecap:round;stroke-linejoin:round;stroke-miterlimit:10;" x1="371.723" y1="202.195" x2="385.876" y2="202.195"/>
			</g>
			<g>
				
					<line style="fill:none;stroke:#263238;stroke-linecap:round;stroke-linejoin:round;stroke-miterlimit:10;" x1="326.352" y1="159.321" x2="369.226" y2="159.321"/>
				
					<line style="fill:none;stroke:#263238;stroke-linecap:round;stroke-linejoin:round;stroke-miterlimit:10;" x1="321.773" y1="220.093" x2="334.052" y2="207.814"/>
				
					<line style="fill:none;stroke:#263238;stroke-linecap:round;stroke-linejoin:round;stroke-miterlimit:10;" x1="399.612" y1="185.128" x2="399.612" y2="216.347"/>
				<g>
					
						<line style="fill:none;stroke:#263238;stroke-linecap:round;stroke-linejoin:round;stroke-miterlimit:10;" x1="336.758" y1="235.495" x2="350.911" y2="235.495"/>
					
						<line style="fill:none;stroke:#263238;stroke-linecap:round;stroke-linejoin:round;stroke-miterlimit:10;" x1="336.758" y1="238.408" x2="350.911" y2="238.408"/>
					
						<line style="fill:none;stroke:#263238;stroke-linecap:round;stroke-linejoin:round;stroke-miterlimit:10;" x1="336.758" y1="241.322" x2="350.911" y2="241.322"/>
					
						<line style="fill:none;stroke:#263238;stroke-linecap:round;stroke-linejoin:round;stroke-miterlimit:10;" x1="336.758" y1="244.236" x2="350.911" y2="244.236"/>
				</g>
				<g>
					
						<line style="fill:none;stroke:#263238;stroke-linecap:round;stroke-linejoin:round;stroke-miterlimit:10;" x1="295.549" y1="185.961" x2="309.702" y2="185.961"/>
					
						<line style="fill:none;stroke:#263238;stroke-linecap:round;stroke-linejoin:round;stroke-miterlimit:10;" x1="295.549" y1="188.875" x2="309.702" y2="188.875"/>
					
						<line style="fill:none;stroke:#263238;stroke-linecap:round;stroke-linejoin:round;stroke-miterlimit:10;" x1="295.549" y1="191.788" x2="309.702" y2="191.788"/>
					
						<line style="fill:none;stroke:#263238;stroke-linecap:round;stroke-linejoin:round;stroke-miterlimit:10;" x1="295.549" y1="194.702" x2="309.702" y2="194.702"/>
				</g>
				<g>
					
						<line style="fill:none;stroke:#263238;stroke-linecap:round;stroke-linejoin:round;stroke-miterlimit:10;" x1="362.149" y1="164.732" x2="376.302" y2="164.732"/>
					
						<line style="fill:none;stroke:#263238;stroke-linecap:round;stroke-linejoin:round;stroke-miterlimit:10;" x1="362.149" y1="167.646" x2="376.302" y2="167.646"/>
					
						<line style="fill:none;stroke:#263238;stroke-linecap:round;stroke-linejoin:round;stroke-miterlimit:10;" x1="362.149" y1="170.56" x2="376.302" y2="170.56"/>
					
						<line style="fill:none;stroke:#263238;stroke-linecap:round;stroke-linejoin:round;stroke-miterlimit:10;" x1="362.149" y1="173.473" x2="376.302" y2="173.473"/>
				</g>
				<g>
					
						<line style="fill:none;stroke:#263238;stroke-linecap:round;stroke-linejoin:round;stroke-miterlimit:10;" x1="365.479" y1="240.906" x2="379.632" y2="240.906"/>
					
						<line style="fill:none;stroke:#263238;stroke-linecap:round;stroke-linejoin:round;stroke-miterlimit:10;" x1="365.479" y1="243.82" x2="379.632" y2="243.82"/>
					
						<line style="fill:none;stroke:#263238;stroke-linecap:round;stroke-linejoin:round;stroke-miterlimit:10;" x1="365.479" y1="246.733" x2="379.632" y2="246.733"/>
					
						<line style="fill:none;stroke:#263238;stroke-linecap:round;stroke-linejoin:round;stroke-miterlimit:10;" x1="365.479" y1="249.647" x2="379.632" y2="249.647"/>
				</g>
				<g>
					<polygon style="fill:#C6FF00;" points="370.474,215.515 358.403,216.347 358.403,229.251 371.723,228.418 					"/>
					
						<line style="fill:none;stroke:#263238;stroke-linecap:round;stroke-linejoin:round;stroke-miterlimit:10;" x1="360.825" y1="220.036" x2="368.602" y2="219.48"/>
					
						<line style="fill:none;stroke:#263238;stroke-linecap:round;stroke-linejoin:round;stroke-miterlimit:10;" x1="360.547" y1="223.369" x2="368.879" y2="223.091"/>
				</g>
				<g>
					<polygon style="fill:#C6FF00;" points="323.259,172.465 311.188,173.298 311.188,186.201 324.507,185.369 					"/>
					
						<line style="fill:none;stroke:#263238;stroke-linecap:round;stroke-linejoin:round;stroke-miterlimit:10;" x1="313.609" y1="176.986" x2="321.386" y2="176.431"/>
					
						<line style="fill:none;stroke:#263238;stroke-linecap:round;stroke-linejoin:round;stroke-miterlimit:10;" x1="313.332" y1="180.319" x2="321.664" y2="180.041"/>
				</g>
				<g>
					<polygon style="fill:#C6FF00;" points="302.428,209.682 290.357,210.515 290.357,223.418 303.677,222.586 					"/>
					
						<line style="fill:none;stroke:#263238;stroke-linecap:round;stroke-linejoin:round;stroke-miterlimit:10;" x1="292.779" y1="214.203" x2="300.556" y2="213.648"/>
					
						<line style="fill:none;stroke:#263238;stroke-linecap:round;stroke-linejoin:round;stroke-miterlimit:10;" x1="292.501" y1="217.536" x2="300.833" y2="217.258"/>
				</g>
			</g>
		</g>
	</g>
</g>
<g id="Character">
	<g>
		<path id="XMLID_194_" style="fill:#FFFFFF;stroke:#263238;stroke-linecap:round;stroke-linejoin:round;stroke-miterlimit:10;" d="
			M285.609,238.245c0,0,2.266,4.155,2.266,6.044c0,1.889-10.576,24.741-10.765,25.497c-0.189,0.755,1.133,4.91,0.378,7.932
			c-0.755,3.022-3.589,6.233-3.589,6.233l-3.588-15.487c0,0,3.966-3.966,2.078-9.443c-1.889-5.477-1.889-17.187-1.889-17.187
			L285.609,238.245z"/>
		<path id="XMLID_200_" style="fill:#FFFFFF;stroke:#263238;stroke-linecap:round;stroke-linejoin:round;stroke-miterlimit:10;" d="
			M267.289,410.475c0,0-0.942,9.585-0.186,10.151c0.755,0.567,4.606,0.484,7.266,0c3.633-0.66,5.613,0.165,8.257,0.165
			c2.644,0,8.309,0.723,8.918-0.495c1.156-2.312-5.746-4.533-9.523-6.799c-3.777-2.266-7.366-4.155-7.366-4.155L267.289,410.475z"/>
		<path id="XMLID_197_" style="fill:#263238;stroke:#263238;stroke-linecap:round;stroke-linejoin:round;stroke-miterlimit:10;" d="
			M238.582,266.574c0,0-3.4,18.131-3.588,21.53c-0.189,3.4-9.632,118.404-9.632,118.404l8.688,0.755l21.719-108.961l1.511-0.378
			l10.01,112.549l8.121-1.511l0.378-124.07l-2.455-18.698L238.582,266.574z"/>
		<path id="XMLID_196_" style="fill:#C6FF00;stroke:#263238;stroke-linecap:round;stroke-linejoin:round;stroke-miterlimit:10;" d="
			M247.27,208.782c0,0-15.109-3.211-18.698-4.155c-3.588-0.944-4.533,7.555-5.666,10.387c-1.133,2.833-11.899,22.475-11.143,23.986
			c0.755,1.511,3.588,5.477,9.254,1.511c5.666-3.966,9.065-10.576,9.065-10.576s7.555,21.342,7.932,23.797
			c0.378,2.455-0.944,12.654,0,14.731c0.944,2.077,10.387,3.399,18.131,3.211c7.743-0.189,16.242-0.378,17.375-3.211
			c1.133-2.833-0.189-23.797-0.189-23.797s11.71-2.078,13.598-4.91c1.889-2.833-2.266-6.799-6.044-14.165
			c-3.777-7.366-4.722-16.242-7.555-17.942c-2.833-1.7-21.342,1.511-23.041,1.511S247.27,208.782,247.27,208.782z"/>
		
			<polygon id="XMLID_202_" style="fill:#263238;stroke:#263238;stroke-linecap:round;stroke-linejoin:round;stroke-miterlimit:10;" points="
			250.103,213.881 252.747,220.68 249.159,262.042 257.846,276.773 262.946,259.775 255.391,220.114 259.546,211.993 
			253.88,209.538 249.536,212.937 		"/>
		<path id="XMLID_199_" style="fill:#C6FF00;stroke:#263238;stroke-linecap:round;stroke-linejoin:round;stroke-miterlimit:10;" d="
			M243.115,207.649l-0.567,12.087l12.654-6.232l11.143,6.61l-6.044-12.654c0,0-4.155-2.455-9.254-2.455
			C245.948,205.005,243.115,207.649,243.115,207.649z"/>
		<path id="XMLID_193_" style="fill:#FFFFFF;stroke:#263238;stroke-linecap:round;stroke-linejoin:round;stroke-miterlimit:10;" d="
			M245.759,194.428c0,0,0.755,4.344,0.566,9.632c-0.189,5.288,0.567,4.155,3.022,8.121c2.455,3.966,4.155,5.477,6.233,3.211
			c2.077-2.266,2.077-6.988,2.455-7.932c0.378-0.944,0.755-11.898,0.755-11.898S256.147,197.45,245.759,194.428z"/>
		<g>
			<path id="XMLID_15_" style="fill:#FFFFFF;stroke:#263238;stroke-linecap:round;stroke-linejoin:round;stroke-miterlimit:10;" d="
				M259.329,172.15c0,0,2.435,6.817,2.435,15.094s0,11.037-2.759,12.497c-2.759,1.461-6.979,1.623-9.576,0
				c-2.597-1.623-5.356-3.733-7.141-5.681c-1.785-1.948-6.655-7.953-7.304-12.011c-0.649-4.058,7.141-9.251,13.634-11.848
				C255.11,167.606,259.329,172.15,259.329,172.15z"/>
			<g>
				<path style="fill:#263238;" d="M250.967,182.899c0.179,0.943-0.08,1.784-0.579,1.878c-0.499,0.095-1.049-0.592-1.228-1.535
					c-0.179-0.943,0.08-1.784,0.579-1.878C250.238,181.27,250.788,181.957,250.967,182.899z"/>
				<path style="fill:none;stroke:#263238;stroke-linecap:round;stroke-linejoin:round;stroke-miterlimit:10;" d="M256.91,180.517
					c0,0,1.022-1.431,2.453-0.818"/>
				
					<line style="fill:none;stroke:#263238;stroke-linecap:round;stroke-linejoin:round;stroke-miterlimit:10;" x1="256.91" y1="191.757" x2="259.567" y2="189.918"/>
				<path style="fill:none;stroke:#263238;stroke-linecap:round;stroke-linejoin:round;stroke-miterlimit:10;" d="M246.692,180.517
					c0,0,0.818-2.861,4.496-1.839"/>
				<path style="fill:none;stroke:#263238;stroke-linecap:round;stroke-linejoin:round;stroke-miterlimit:10;" d="M254.662,178.268
					c0,0,0.204-2.044,3.066-2.044"/>
				<path id="XMLID_13_" style="fill:none;stroke:#263238;stroke-linecap:round;stroke-linejoin:round;stroke-miterlimit:10;" d="
					M255.384,180.265c0,0,3.246,5.194,3.084,6.005c-0.162,0.811-3.408,3.084-3.408,3.084"/>
			</g>
		</g>
		<g>
			
				<path id="XMLID_190_" style="fill:#263238;stroke:#263238;stroke-linecap:round;stroke-linejoin:round;stroke-miterlimit:10;" d="
				M239.853,189.841c0,0,1.461-0.325,1.461-2.272c0-1.948-0.974-3.084-0.974-5.843c0-2.759,8.602-7.141,12.984-6.654
				c4.382,0.487,8.44,0.487,10.874-1.948c2.434-2.435,2.921-5.194,1.948-5.031c-0.974,0.162-3.408,1.298-3.408,1.298
				s1.461-5.031-1.948-9.9c-3.408-4.869-4.22-1.623-3.733-0.812c0.487,0.812,1.948,4.544,1.948,4.544s-5.356-4.058-8.764-3.733
				c-3.408,0.325-14.283,5.194-16.88,8.927c-2.597,3.733-2.759,9.576-2.11,12.822c0.649,3.246,2.597,3.571,2.597,3.571l4.382,5.518
				L239.853,189.841z"/>
			<g>
				<path style="fill:none;stroke:#787878;stroke-linecap:round;stroke-linejoin:round;stroke-miterlimit:10;" d="M233.987,181.179
					c0,0,0.613-5.109,5.314-6.744c4.701-1.635,8.993-1.635,14.919-1.635c5.927,0,2.861-5.722,0.613-6.131"/>
				<path style="fill:none;stroke:#787878;stroke-linecap:round;stroke-linejoin:round;stroke-miterlimit:10;" d="M233.578,174.23
					c0,0,1.022-4.292,9.81-4.701"/>
			</g>
		</g>
		<path id="XMLID_14_" style="fill:#FFFFFF;stroke:#263238;stroke-linecap:round;stroke-linejoin:round;stroke-miterlimit:10;" d="
			M242.288,191.464c0,0-2.11-5.031-5.518-3.571c-3.408,1.461,0.325,8.277,3.895,8.115c3.571-0.162,4.058-2.272,4.058-2.272"/>
		<path id="XMLID_195_" style="fill:#FFFFFF;stroke:#263238;stroke-linecap:round;stroke-linejoin:round;stroke-miterlimit:10;" d="
			M242.809,215.462c0,0,0-10.054,1.058-11.994c1.058-1.94,4.409-3.528,6.35-4.586c1.94-1.058,2.822,0,1.94,1.587
			c-0.882,1.587-3.175,3.704-3.175,3.704s9.348-4.41,10.23-3.175c0.882,1.235,1.058,2.822,0,3.704
			c-1.058,0.882-2.116,1.411-2.646,2.117c-0.529,0.705,0.529,5.997-0.529,7.761c-1.058,1.764-5.82,3.704-8.29,5.291
			s-20.107,20.989-24.869,23.282c-4.762,2.293-7.584,3.704-10.053,0.529c-2.469-3.175-1.94-6.35,1.235-10.23
			S242.809,215.462,242.809,215.462z"/>
		<path id="XMLID_198_" style="fill:#FFFFFF;stroke:#263238;stroke-linecap:round;stroke-linejoin:round;stroke-miterlimit:10;" d="
			M225.362,406.509c0,0-2.833,5.477-4.722,7.366c-1.889,1.889-5.769,5.643-5.391,6.587c0.378,0.944,18.166,0,18.166,0
			s1.486,0.661,1.013-3.754c-0.222-2.066-0.378-9.443-0.378-9.443L225.362,406.509z"/>
		<path id="XMLID_203_" style="fill:#FFFFFF;stroke:#263238;stroke-linecap:round;stroke-linejoin:round;stroke-miterlimit:10;" d="
			M273.333,244.666c0,0,0.189-21.342-0.944-23.986"/>
	</g>
</g>
<g id="Chair">
	<g>
		<g>
			<path style="fill:#263238;stroke:#263238;stroke-linecap:round;stroke-linejoin:round;stroke-miterlimit:10;" d="
				M122.062,415.445c0-2.558-2.074-4.632-4.632-4.632c-2.558,0-4.632,2.074-4.632,4.632s2.074,4.632,4.632,4.632
				C119.988,420.077,122.062,418.004,122.062,415.445z"/>
			
				<circle style="fill:#FFFFFF;stroke:#263238;stroke-linecap:round;stroke-linejoin:round;stroke-miterlimit:10;" cx="117.43" cy="415.445" r="2.316"/>
		</g>
		<g>
			<path style="fill:#263238;stroke:#263238;stroke-linecap:round;stroke-linejoin:round;stroke-miterlimit:10;" d="
				M171.672,415.445c0-2.558-2.074-4.632-4.632-4.632c-2.558,0-4.632,2.074-4.632,4.632s2.074,4.632,4.632,4.632
				C169.598,420.077,171.672,418.004,171.672,415.445z"/>
			<path style="fill:#FFFFFF;stroke:#263238;stroke-linecap:round;stroke-linejoin:round;stroke-miterlimit:10;" d="
				M169.356,415.445c0-1.279-1.037-2.316-2.316-2.316c-1.279,0-2.316,1.037-2.316,2.316c0,1.279,1.037,2.316,2.316,2.316
				C168.319,417.761,169.356,416.725,169.356,415.445z"/>
		</g>
		<g>
			
				<circle style="fill:#263238;stroke:#263238;stroke-linecap:round;stroke-linejoin:round;stroke-miterlimit:10;" cx="183.252" cy="415.445" r="4.632"/>
			
				<circle style="fill:#FFFFFF;stroke:#263238;stroke-linecap:round;stroke-linejoin:round;stroke-miterlimit:10;" cx="183.252" cy="415.445" r="2.316"/>
		</g>
		<path style="fill:#263238;stroke:#263238;stroke-linecap:round;stroke-linejoin:round;stroke-miterlimit:10;" d="M159.86,410.15
			h-9.797v-67.45c0-0.02,0.016-0.036,0.036-0.036h9.725c0.02,0,0.036,0.016,0.036,0.036V410.15z"/>
		
			<rect x="147.454" y="374.731" style="fill:#263238;stroke:#263238;stroke-linecap:round;stroke-linejoin:round;stroke-miterlimit:10;" width="15.015" height="35.419"/>
		<path style="fill:#263238;stroke:#263238;stroke-linecap:round;stroke-linejoin:round;stroke-miterlimit:10;" d="M144.924,334.266
			H132.4c-0.02,0-0.036-0.016-0.036-0.036v-26.949h12.596v26.949C144.96,334.25,144.944,334.266,144.924,334.266z"/>
		<path style="fill:#C6FF00;stroke:#263238;stroke-linecap:round;stroke-linejoin:round;stroke-miterlimit:10;" d="M163.464,307.293
			h-49.044c-4.832,0-8.715-3.981-8.596-8.811l1.184-47.883c0.115-4.665,3.93-8.386,8.596-8.386h40.497
			c4.244,0,7.854,3.097,8.499,7.292l7.363,47.883C172.764,302.596,168.734,307.293,163.464,307.293z"/>
		
			<line style="fill:none;stroke:#263238;stroke-linecap:round;stroke-linejoin:round;stroke-miterlimit:10;" x1="147.439" y1="344.413" x2="125.921" y2="358.584"/>
		<path style="fill:#263238;stroke:#263238;stroke-linecap:round;stroke-linejoin:round;stroke-miterlimit:10;" d="M125.106,356.439
			l-3.665,2.47c-1.261,0.85-1.424,2.643-0.338,3.707l0.254,0.249c0.877,0.859,2.26,0.917,3.207,0.137l3.368-2.777
			c1.065-0.878,1.155-2.478,0.194-3.47l0,0C127.329,355.931,126.056,355.798,125.106,356.439z"/>
		<path style="fill:#C6FF00;stroke:#263238;stroke-linecap:round;stroke-linejoin:round;stroke-miterlimit:10;" d="M195.178,346.862
			h-80.432c-4.07,0-7.369-3.299-7.369-7.369v-0.656c0-4.07,3.299-7.37,7.369-7.37h80.432c4.07,0,7.369,3.299,7.369,7.369v0.656
			C202.547,343.563,199.248,346.862,195.178,346.862z"/>
		<path style="fill:#C6FF00;stroke:#263238;stroke-linecap:round;stroke-linejoin:round;stroke-miterlimit:10;" d="M202.492,338.23
			c-0.462-3.926-4.012-6.763-7.965-6.763h-41.342c-3.953,0-7.503,2.837-7.965,6.763c-0.549,4.669,3.084,8.632,7.643,8.632h41.987
			C199.409,346.862,203.042,342.899,202.492,338.23z"/>
		<path style="fill:#263238;stroke:#263238;stroke-linecap:round;stroke-linejoin:round;stroke-miterlimit:10;" d="M189.371,412.949
			h-76.598v-0.198c0-2.206,1.789-3.995,3.995-3.995h68.608c2.206,0,3.995,1.789,3.995,3.995V412.949z"/>
		<path style="fill:#263238;stroke:#263238;stroke-linecap:round;stroke-linejoin:round;stroke-miterlimit:10;" d="M175.732,412.949
			h-24.929v-4.194h20.934c2.206,0,3.995,1.789,3.995,3.995V412.949z"/>
	</g>
</g>
<g id="Table">
	<g>
		<g>
			
				<rect x="149.231" y="297.857" style="fill:#FFFFFF;stroke:#263238;stroke-linecap:round;stroke-linejoin:round;stroke-miterlimit:10;" width="63.482" height="2.562"/>
			
				<rect x="167.13" y="297.857" style="fill:#FFFFFF;stroke:#263238;stroke-linecap:round;stroke-linejoin:round;stroke-miterlimit:10;" width="63.482" height="2.562"/>
			
				<rect x="170.599" y="252.89" style="fill:#FFFFFF;stroke:#263238;stroke-linecap:round;stroke-linejoin:round;stroke-miterlimit:10;" width="52.936" height="40.413"/>
			
				<rect x="172.789" y="252.89" style="fill:#263238;stroke:#263238;stroke-linecap:round;stroke-linejoin:round;stroke-miterlimit:10;" width="52.936" height="40.413"/>
			
				<rect x="195.846" y="274.52" style="fill:#FFFFFF;stroke:#263238;stroke-linecap:round;stroke-linejoin:round;stroke-miterlimit:10;" width="13.661" height="25.899"/>
			<g>
				<g>
					<path style="fill:#263238;" d="M124.321,298.341c0.76,0,1.385-0.608,1.401-1.372l0.313-14.721l6.966-18.17l16.687,6.5
						c0.721,0.279,1.535-0.075,1.816-0.798c0.281-0.722-0.076-1.535-0.798-1.816l-18.001-7.012
						c-0.347-0.135-0.735-0.126-1.076,0.025c-0.34,0.151-0.608,0.432-0.741,0.78l-7.559,19.714
						c-0.058,0.151-0.089,0.311-0.093,0.472l-0.319,14.965c-0.016,0.774,0.598,1.416,1.372,1.432
						C124.3,298.341,124.311,298.341,124.321,298.341z"/>
				</g>
				
					<rect x="115.134" y="294.285" transform="matrix(-1 -1.224647e-16 1.224647e-16 -1 248.6412 593.8771)" style="fill:#263238;stroke:#263238;stroke-linecap:round;stroke-linejoin:round;stroke-miterlimit:10;" width="18.374" height="5.308"/>
				<path style="fill:#263238;" d="M128.931,262.26c0-1.804,1.462-3.266,3.266-3.266c1.804,0,3.266,1.463,3.266,3.266
					c0,1.804-1.462,3.266-3.266,3.266C130.393,265.526,128.931,264.064,128.931,262.26z"/>
				<path style="fill:#263238;" d="M121.5,282.745c0-1.804,1.463-3.266,3.267-3.266s3.266,1.462,3.266,3.266
					c0,1.804-1.462,3.266-3.266,3.266S121.5,284.549,121.5,282.745z"/>
				<polygon style="fill:#263238;" points="151.27,266.227 163.591,265.462 155.886,282.381 148.374,272.584 				"/>
			</g>
			<path style="fill:#FFFFFF;stroke:#263238;stroke-linecap:round;stroke-linejoin:round;stroke-miterlimit:10;" d="
				M105.416,315.153l2.745,103.635c0.036,1.372,1.159,2.466,2.532,2.466l0,0c1.386,0,2.515-1.114,2.533-2.5l1.354-103.601H105.416z"
				/>
			<path style="fill:#FFFFFF;stroke:#263238;stroke-linecap:round;stroke-linejoin:round;stroke-miterlimit:10;" d="
				M138.897,315.153l2.745,103.635c0.036,1.372,1.159,2.466,2.532,2.466l0,0c1.386,0,2.515-1.114,2.533-2.5l1.354-103.601H138.897z"
				/>
			<path style="fill:#FFFFFF;stroke:#263238;stroke-linecap:round;stroke-linejoin:round;stroke-miterlimit:10;" d="
				M277.011,315.153l2.745,103.635c0.036,1.372,1.159,2.466,2.532,2.466l0,0c1.386,0,2.515-1.114,2.533-2.5l1.354-103.601H277.011z"
				/>
			<path style="fill:#FFFFFF;stroke:#263238;stroke-linecap:round;stroke-linejoin:round;stroke-miterlimit:10;" d="
				M310.492,315.153l2.745,103.635c0.036,1.372,1.159,2.466,2.532,2.466l0,0c1.386,0,2.515-1.114,2.533-2.5l1.354-103.601H310.492z"
				/>
			
				<rect x="102.158" y="303.834" style="fill:#FFFFFF;stroke:#263238;stroke-linecap:round;stroke-linejoin:round;stroke-miterlimit:10;" width="220.557" height="12.402"/>
			
				<rect x="102.158" y="303.834" style="fill:#FFFFFF;stroke:#263238;stroke-linecap:round;stroke-linejoin:round;stroke-miterlimit:10;" width="46.151" height="12.402"/>
			
				<rect x="102.158" y="303.834" style="fill:#263238;stroke:#263238;stroke-linecap:round;stroke-linejoin:round;stroke-miterlimit:10;" width="220.557" height="6.201"/>
			
				<rect x="99.596" y="299.565" style="fill:#FFFFFF;stroke:#263238;stroke-linecap:round;stroke-linejoin:round;stroke-miterlimit:10;" width="225.68" height="6.831"/>
			
				<rect x="151.374" y="299.565" style="fill:#FFFFFF;stroke:#263238;stroke-linecap:round;stroke-linejoin:round;stroke-miterlimit:10;" width="173.902" height="6.831"/>
		</g>
	</g>
</g>
<g id="Clock">
	<g>
		
			<ellipse transform="matrix(0.3792 -0.9253 0.9253 0.3792 -78.5871 243.1078)" style="fill:none;stroke:#263238;stroke-linecap:round;stroke-linejoin:round;stroke-miterlimit:10;" cx="141.88" cy="180.12" rx="27.12" ry="27.12"/>
		
			<ellipse transform="matrix(0.9873 -0.1591 0.1591 0.9873 -26.845 24.862)" style="fill:none;stroke:#263238;stroke-linecap:round;stroke-linejoin:round;stroke-miterlimit:10;" cx="141.88" cy="180.12" rx="22.473" ry="22.473"/>
		<polyline style="fill:none;stroke:#263238;stroke-linecap:round;stroke-linejoin:round;stroke-miterlimit:10;" points="
			127.545,180.12 141.88,180.12 141.88,200.802 		"/>
	</g>
</g>
<g id="Floor">
	
		<line style="fill:none;stroke:#263238;stroke-linecap:round;stroke-linejoin:round;stroke-miterlimit:10;" x1="51.7" y1="421.085" x2="453.7" y2="421.085"/>
</g>
</svg>
